<svg width="64" height="64" viewBox="0 0 64 64" fill="none" xmlns="http://www.w3.org/2000/svg">
<path d="M52 9H12C9.239 9 7 11.239 7 14V44V56.35C7 57.814 8.186 59 9.65 59H9.657C10.501 59 11.295 58.598 11.794 57.917L16.835 51.043C17.777 49.759 19.274 49 20.867 49H52C54.761 49 57 46.761 57 44V14C57 11.239 54.761 9 52 9V9Z" fill="url(#paint0_linear)"/>
<path d="M32 38C30.8954 38 30 38.8954 30 40C30 41.1046 30.8954 42 32 42C33.1046 42 34 41.1046 34 40C34 38.8954 33.1046 38 32 38ZM32 35C30.896 35 30 34.104 30 33C30 30.217 31.709 28.688 32.958 27.571C34.3 26.371 35 25.667 35 24C35 22.093 33.907 21 32 21C30.093 21 29 22.093 29 24C29 25.104 28.104 26 27 26C25.896 26 25 25.104 25 24C25 19.878 27.878 17 32 17C36.122 17 39 19.878 39 24C39 27.534 37.049 29.279 35.625 30.553C34.421 31.629 34 32.087 34 33C34 34.104 33.104 35 32 35Z" fill="white"/>
<path d="M15.5 24H7V14C7 11.239 9.239 9 12 9H19.5C20.881 9 22 10.119 22 11.5C22 12.881 20.881 14 19.5 14H14.5C13.119 14 12 15.119 12 16.5C12 17.881 13.119 19 14.5 19H15.5C16.881 19 18 20.119 18 21.5C18 22.881 16.881 24 15.5 24Z" fill="url(#paint1_linear)"/>
<defs>
<linearGradient id="paint0_linear" x1="32" y1="66.567" x2="32" y2="16.567" gradientUnits="userSpaceOnUse">
<stop stop-color="#BD93F9"/>
<stop offset="0.278" stop-color="#BD93F9"/>
<stop offset="0.569" stop-color="#BD93F9"/>
<stop offset="0.82" stop-color="#BD93F9"/>
<stop offset="1" stop-color="#BD93F9"/>
</linearGradient>
<linearGradient id="paint1_linear" x1="14.5" y1="24" x2="14.5" y2="9" gradientUnits="userSpaceOnUse">
<stop stop-color="#BD93F9"/>
<stop offset="0.989" stop-color="#BD93F9"/>
</linearGradient>
</defs>
</svg>
